<?xml version="1.0" encoding="UTF-8" standalone="no"?>
<svg
   width="2.3203607in"
   height="0.54993349in"
   viewBox="0 0 167.06597 39.59521"
   version="1.1"
   id="svg68"
   sodipodi:docname="ARC4CFD_airoil.svg"
   inkscape:version="1.3 (0e150ed, 2023-07-21)"
   inkscape:export-filename="ARC4CFD_airfoil.png"
   inkscape:export-xdpi="296"
   inkscape:export-ydpi="296"
   xmlns:inkscape="http://www.inkscape.org/namespaces/inkscape"
   xmlns:sodipodi="http://sodipodi.sourceforge.net/DTD/sodipodi-0.dtd"
   xmlns:xlink="http://www.w3.org/1999/xlink"
   xmlns="http://www.w3.org/2000/svg"
   xmlns:svg="http://www.w3.org/2000/svg"
   xmlns:rdf="http://www.w3.org/1999/02/22-rdf-syntax-ns#"
   xmlns:cc="http://creativecommons.org/ns#"
   xmlns:dc="http://purl.org/dc/elements/1.1/">
  <sodipodi:namedview
     id="namedview68"
     pagecolor="#ffffff"
     bordercolor="#000000"
     borderopacity="0.25"
     inkscape:showpageshadow="2"
     inkscape:pageopacity="0.0"
     inkscape:pagecheckerboard="0"
     inkscape:deskcolor="#d1d1d1"
     inkscape:document-units="pt"
     inkscape:zoom="1.4485868"
     inkscape:cx="371.05129"
     inkscape:cy="208.13388"
     inkscape:window-width="1416"
     inkscape:window-height="570"
     inkscape:window-x="96"
     inkscape:window-y="255"
     inkscape:window-maximized="0"
     inkscape:current-layer="svg68"
     showgrid="false"
     inkscape:export-bgcolor="#ffffffff" />
  <metadata
     id="metadata1">
    <rdf:RDF>
      <cc:Work>
        <dc:type
           rdf:resource="http://purl.org/dc/dcmitype/StillImage" />
        <dc:date>2024-02-13T09:44:05.784975</dc:date>
        <dc:format>image/svg+xml</dc:format>
        <dc:creator>
          <cc:Agent>
            <dc:title>Matplotlib v3.7.2, https://matplotlib.org/</dc:title>
          </cc:Agent>
        </dc:creator>
      </cc:Work>
    </rdf:RDF>
  </metadata>
  <defs
     id="defs1">
    <marker
       style="overflow:visible"
       id="Triangle"
       refX="0"
       refY="0"
       orient="auto-start-reverse"
       inkscape:stockid="Triangle arrow"
       markerWidth="1"
       markerHeight="1"
       viewBox="0 0 1 1"
       inkscape:isstock="true"
       inkscape:collect="always"
       preserveAspectRatio="xMidYMid">
      <path
         transform="scale(0.5)"
         style="fill:context-stroke;fill-rule:evenodd;stroke:context-stroke;stroke-width:1pt"
         d="M 5.77,0 -2.88,5 V -5 Z"
         id="path135" />
    </marker>
    <marker
       style="overflow:visible"
       id="RoundedArrow"
       refX="0"
       refY="0"
       orient="auto-start-reverse"
       inkscape:stockid="Rounded arrow"
       markerWidth="1"
       markerHeight="1"
       viewBox="0 0 1 1"
       inkscape:isstock="true"
       inkscape:collect="always"
       preserveAspectRatio="xMidYMid">
      <path
         transform="scale(0.7)"
         d="m -0.21114562,-4.1055728 6.42229122,3.21114561 a 1,1 90 0 1 0,1.78885438 L -0.21114562,4.1055728 A 1.236068,1.236068 31.717474 0 1 -2,3 v -6 a 1.236068,1.236068 148.28253 0 1 1.78885438,-1.1055728 z"
         style="fill:context-stroke;fill-rule:evenodd;stroke:none"
         id="path8" />
    </marker>
    <inkscape:path-effect
       effect="simplify"
       id="path-effect98"
       is_visible="true"
       lpeversion="1.3"
       threshold="13.3333"
       steps="1"
       smooth_angles="360"
       helper_size="0"
       simplify_individual_paths="false"
       simplify_just_coalesce="false" />
    <linearGradient
       id="linearGradient93"
       inkscape:collect="always">
      <stop
         style="stop-color:#005eff;stop-opacity:1;"
         offset="0"
         id="stop91" />
      <stop
         style="stop-color:#00cdff;stop-opacity:1;"
         offset="0.34007713"
         id="stop92" />
      <stop
         style="stop-color:#005eff;stop-opacity:1;"
         offset="1"
         id="stop93" />
    </linearGradient>
    <linearGradient
       id="linearGradient85"
       inkscape:collect="always">
      <stop
         style="stop-color:#005eff;stop-opacity:1;"
         offset="0"
         id="stop85" />
      <stop
         style="stop-color:#00cdff;stop-opacity:0.49803922;"
         offset="0.34007713"
         id="stop87" />
      <stop
         style="stop-color:#005eff;stop-opacity:1;"
         offset="1"
         id="stop86" />
    </linearGradient>
    <linearGradient
       id="linearGradient83"
       inkscape:collect="always">
      <stop
         style="stop-color:#200cb3;stop-opacity:1;"
         offset="0"
         id="stop83" />
      <stop
         style="stop-color:#b3b3b3;stop-opacity:1;"
         offset="1"
         id="stop84" />
    </linearGradient>
    <style
       type="text/css"
       id="style1">*{stroke-linejoin: round; stroke-linecap: butt}</style>
    <clipPath
       id="p51a32f6ac6">
      <rect
         x="57.599998"
         y="41.472"
         width="357.12"
         height="266.112"
         id="rect73" />
    </clipPath>
    <linearGradient
       inkscape:collect="always"
       xlink:href="#linearGradient83"
       id="linearGradient84"
       x1="319.1904"
       y1="-116.62228"
       x2="323.07349"
       y2="-105.49075"
       gradientUnits="userSpaceOnUse"
       gradientTransform="translate(13.461396,180.17564)" />
    <linearGradient
       inkscape:collect="always"
       xlink:href="#linearGradient93"
       id="linearGradient89"
       x1="171.29015"
       y1="-167.36305"
       x2="198.05972"
       y2="-99.268127"
       gradientUnits="userSpaceOnUse"
       gradientTransform="translate(13.461396,180.17564)" />
    <linearGradient
       inkscape:collect="always"
       xlink:href="#linearGradient85"
       id="linearGradient91"
       x1="379.64746"
       y1="-132.66901"
       x2="394.29156"
       y2="-94.594421"
       gradientUnits="userSpaceOnUse"
       gradientTransform="translate(13.461396,180.17564)" />
    <clipPath
       id="pfdab750b1c">
      <rect
         x="57.599998"
         y="41.472"
         width="357.12"
         height="266.112"
         id="rect68-6" />
    </clipPath>
    <clipPath
       clipPathUnits="userSpaceOnUse"
       id="clipPath2">
      <rect
         style="fill:#070d65;stroke-width:20.421;stroke-linecap:square;stroke-linejoin:bevel"
         id="rect3"
         width="470.92706"
         height="78.487839"
         x="20.278172"
         y="104.61922" />
    </clipPath>
    <clipPath
       clipPathUnits="userSpaceOnUse"
       id="clipPath10">
      <g
         id="g11"
         transform="matrix(4.6999337,0.02851689,-0.02851689,4.6999337,-2046.0698,-5.4508737)">
        <rect
           style="opacity:1;fill:none;fill-opacity:1;stroke:#27364a;stroke-width:2.02773;stroke-linecap:square;stroke-linejoin:bevel;stroke-dasharray:none;stroke-dashoffset:0;stroke-opacity:1"
           id="rect10"
           width="88.33213"
           height="59.370777"
           x="394.77969"
           y="70.968819"
           transform="rotate(-8.9836423)" />
      </g>
    </clipPath>
    <clipPath
       clipPathUnits="userSpaceOnUse"
       id="clipPath11">
      <g
         id="g12"
         transform="matrix(1.4126266,0.22332468,-0.22332468,1.4126266,-280.34308,34.720344)">
        <rect
           style="opacity:1;fill:none;fill-opacity:1;stroke:#27364a;stroke-width:2.02773;stroke-linecap:square;stroke-linejoin:bevel;stroke-dasharray:none;stroke-dashoffset:0;stroke-opacity:1"
           id="rect11"
           width="88.33213"
           height="59.370777"
           x="394.77969"
           y="70.968819"
           transform="rotate(-8.9836423)" />
      </g>
    </clipPath>
  </defs>
  <defs
     id="defs68">
    <clipPath
       id="p09c7f9ade2">
      <rect
         x="57.599998"
         y="41.472"
         width="357.12"
         height="266.112"
         id="rect68" />
    </clipPath>
  </defs>
  <g
     id="g102"
     transform="matrix(0.31718183,0,0,0.31718183,0.1110135,0)">
    <g
       id="g96"
       style="opacity:0.247191;fill:#b3b3b3;fill-opacity:1;stroke:#3c5372;stroke-width:6.57267;stroke-linecap:butt;stroke-linejoin:round;stroke-dasharray:6.57267, 13.1453;stroke-dashoffset:0;stroke-opacity:1"
       transform="matrix(0.28921873,0.09457864,-0.09457864,0.28921873,421.22157,-24.209266)">
      <path
         d="m 398.48727,174.528 -19.46899,-2.72394 -21.0948,-2.73019 -22.27195,-2.65595 -22.40939,-2.45049 -22.09574,-2.19828 -20.82109,-1.86106 -20.15868,-1.58445 -19.10545,-1.27332 -16.5104,-0.88993 -16.28533,-0.65137 -14.68608,-0.35894 -13.05536,-0.10345 -12.56577,0.12751 -10.91962,0.32498 -10.37015,0.52826 -9.75676,0.73173 -8.20682,0.82964 -7.6202,0.98651 -6.99553,1.13614 -5.665509,1.12827 -5.121926,1.23217 -4.55813,1.32827 -3.511676,1.23474 -3.055602,1.29676 -2.590292,1.35361 -1.843931,1.20179 -1.492204,1.23722 -0.972409,1.05628 -0.72434,1.07794 -0.475153,1.09854 -0.225235,1.1183 0.02503,1.13063 0.275259,1.11441 0.525062,1.09449 0.774055,1.07369 1.021855,1.05181 1.551076,1.2315 1.902175,1.19563 2.249051,1.15694 3.055602,1.29676 3.511676,1.23474 3.957141,1.16732 5.052512,1.24462 5.598743,1.14167 6.12287,1.0314 7.48457,1.02046 8.0799,0.86502 8.63489,0.704 10.19268,0.58945 10.76171,0.38571 11.26436,0.18482 12.88842,-0.0209 13.31642,-0.24304 14.89835,-0.49827 16.42779,-0.78444 17.83487,-1.08773 19.03477,-1.39096 19.9286,-1.67497 21.5738,-2.03511 22.41706,-2.33853 23.06761,-2.63711 22.41633,-2.79397 21.23463,-2.87542 7.55565,-1.08187 v 0"
         clip-path="url(#p51a32f6ac6)"
         style="fill:#b3b3b3;fill-opacity:1;stroke:#3c5372;stroke-width:6.57267;stroke-linecap:square;stroke-linejoin:round;stroke-dasharray:6.57267, 13.1453;stroke-dashoffset:0;stroke-opacity:1"
         id="path96" />
    </g>
    <g
       id="g72"
       style="opacity:0.463483;fill:#008bff;fill-opacity:1;stroke:#104cd9;stroke-width:6.57267;stroke-linecap:butt;stroke-linejoin:round;stroke-dasharray:none;stroke-opacity:1"
       transform="matrix(0.30084033,0.04569121,-0.04569121,0.30084033,412.249,-22.93815)">
      <path
         d="m 398.48727,174.528 -19.46899,-2.72394 -21.0948,-2.73019 -22.27195,-2.65595 -22.40939,-2.45049 -22.09574,-2.19828 -20.82109,-1.86106 -20.15868,-1.58445 -19.10545,-1.27332 -16.5104,-0.88993 -16.28533,-0.65137 -14.68608,-0.35894 -13.05536,-0.10345 -12.56577,0.12751 -10.91962,0.32498 -10.37015,0.52826 -9.75676,0.73173 -8.20682,0.82964 -7.6202,0.98651 -6.99553,1.13614 -5.665509,1.12827 -5.121926,1.23217 -4.55813,1.32827 -3.511676,1.23474 -3.055602,1.29676 -2.590292,1.35361 -1.843931,1.20179 -1.492204,1.23722 -0.972409,1.05628 -0.72434,1.07794 -0.475153,1.09854 -0.225235,1.1183 0.02503,1.13063 0.275259,1.11441 0.525062,1.09449 0.774055,1.07369 1.021855,1.05181 1.551076,1.2315 1.902175,1.19563 2.249051,1.15694 3.055602,1.29676 3.511676,1.23474 3.957141,1.16732 5.052512,1.24462 5.598743,1.14167 6.12287,1.0314 7.48457,1.02046 8.0799,0.86502 8.63489,0.704 10.19268,0.58945 10.76171,0.38571 11.26436,0.18482 12.88842,-0.0209 13.31642,-0.24304 14.89835,-0.49827 16.42779,-0.78444 17.83487,-1.08773 19.03477,-1.39096 19.9286,-1.67497 21.5738,-2.03511 22.41706,-2.33853 23.06761,-2.63711 22.41633,-2.79397 21.23463,-2.87542 7.55565,-1.08187 v 0"
         clip-path="url(#p51a32f6ac6)"
         style="fill:#008bff;fill-opacity:1;stroke:#104cd9;stroke-width:6.57267;stroke-linecap:square;stroke-linejoin:round;stroke-dasharray:none;stroke-opacity:1"
         id="path72" />
    </g>
    <path
       style="opacity:0.878706;fill:url(#linearGradient91);stroke:none;stroke-width:2;stroke-linecap:square;stroke-linejoin:bevel;stroke-dasharray:none;stroke-opacity:1"
       d="m 426.05802,32.27055 -149.7356,59.308475 c 24.52881,-7.322034 98.93899,15.925425 98.93899,15.925425 L 526.36988,47.64683 c 0,0 -79.44406,-25.26103 -100.31186,-15.37628 z"
       id="path89"
       sodipodi:nodetypes="ccccc" />
    <path
       style="opacity:1;fill:url(#linearGradient84);stroke:none;stroke-width:2;stroke-linecap:square;stroke-linejoin:bevel;stroke-dasharray:none;stroke-opacity:1"
       d="m 267.93354,95.265295 c 9.06055,-12.684777 20.45097,-11.131538 20.45097,-11.131538 L 440.34296,23.55748 c 0,0 -18.89773,6.21294 -18.89773,11.3904 z"
       id="path79"
       sodipodi:nodetypes="ccccc" />
    <path
       d="m 341.45682,186.66467 c 0,0 3.11044,-4.83704 6.66266,-6.87816 3.55222,-2.04113 14.56888,-3.59249 14.56888,-3.59249 l -17.53088,-3.58679 -13.8467,-2.87674 -13.91363,-2.66658 -13.62181,-2.39445 -14.24763,-2.27475 -13.50329,-1.93613 -13.82328,-1.75508 -12.7567,-1.40922 -12.85491,-1.20712 -12.87157,-0.98376 -12.80589,-0.74208 -11.46886,-0.44102 -8.88876,-0.13456 -8.75157,0.0628 -8.58423,0.25791 -8.38718,0.44884 -8.16104,0.63367 -7.90662,0.81059 -7.6249,0.97779 -8.33569,1.3076 -7.89665,1.49184 -7.42314,1.65463 -6.91788,1.79421 -6.38377,1.90936 -5.823859,1.99938 -4.618653,1.80341 -4.159324,1.83629 -3.688618,1.85305 -3.208362,1.85457 -2.72035,1.84197 -1.938711,1.55912 -1.572946,1.53343 -1.205292,1.50166 -0.722805,1.22346 -0.466632,1.19557 -0.210728,1.16594 0.04452,1.13513 0.29633,1.09185 0.541809,1.0239 0.785316,0.95522 1.026625,0.88669 1.265369,0.81847 1.829446,0.89273 2.163317,0.7962 2.937311,0.80876 3.371863,0.68206 4.369898,0.62881 4.90162,0.47415 6.123386,0.358 7.52229,0.195 9.09427,-0.008 10.8263,-0.23802 14.73045,-0.56282 25.90995,-1.26477 28.1024,-1.31159 99.01553,-3.91916 30.06093,-0.88177 12.47591,-0.27089"
       clip-path="url(#p09c7f9ade2)"
       style="opacity:0.463483;fill:#008bff;fill-opacity:1;stroke:#104cd9;stroke-width:2;stroke-linecap:square;stroke-dasharray:none;stroke-opacity:1"
       id="path71"
       sodipodi:nodetypes="czccccccccccccccccccccccccccccccccccccccccccccccccccccccccccc"
       transform="translate(77.300838,-152.78574)" />
    <path
       style="opacity:0.878706;fill:url(#linearGradient89);stroke:#104cd9;stroke-width:2;stroke-linecap:square;stroke-linejoin:bevel;stroke-dasharray:none;stroke-opacity:1"
       d="m 439.60378,23.48411 c 0,0 -143.45307,-37.98096 -254.25071,-13.12915 0,0 -170.856182,67.30698 -174.99815,70.413446 89.570056,-45.561647 279.06509,1.553242 279.06509,1.553242 z"
       id="path73"
       sodipodi:nodetypes="ccccc" />
    <path
       style="opacity:0.463483;fill:#008bff;fill-opacity:0.104938;stroke:#104cd9;stroke-width:2;stroke-linecap:square;stroke-linejoin:bevel;stroke-dasharray:none;stroke-opacity:1"
       d="M 290.97325,83.357136 C 295.11522,80.25067 441.63734,23.29861 441.63734,23.29861"
       id="path75"
       sodipodi:nodetypes="cc" />
    <path
       style="opacity:0.463483;fill:#008bff;fill-opacity:0.104938;stroke:#104cd9;stroke-width:2;stroke-linecap:square;stroke-linejoin:bevel;stroke-dasharray:none;stroke-opacity:1"
       d="M 270.26341,94.229802 C 274.40538,91.123336 420.9275,34.17128 420.9275,34.17128"
       id="path76"
       sodipodi:nodetypes="cc" />
    <path
       style="opacity:0.247191;fill:#b3b3b3;fill-opacity:1;stroke:none;stroke-width:2;stroke-linecap:square;stroke-linejoin:bevel;stroke-dasharray:2, 4;stroke-dashoffset:0;stroke-opacity:1"
       d="M 372.25937,123.74129 523.44119,65.753741 490.8232,48.150377 330.32194,107.17342 Z"
       id="path97" />
    <path
       style="opacity:1;fill:none;fill-opacity:1;stroke:#27364a;stroke-width:2.9;stroke-linecap:square;stroke-linejoin:bevel;stroke-dasharray:none;stroke-dashoffset:0;stroke-opacity:1;marker-start:url(#RoundedArrow);marker-end:url(#Triangle)"
       d="m 455.33295,105.70418 c 16.9179,-15.31111 19.81299,-40.720273 -1.89909,-54.048282"
       id="path99"
       sodipodi:nodetypes="cc" />
    <path
       d="m 341.45682,186.66467 c 0,0 3.11044,-4.83704 6.66266,-6.87816 3.55222,-2.04113 14.56888,-3.59249 14.56888,-3.59249 l -17.53088,-3.58679 -13.8467,-2.87674 -13.91363,-2.66658 -13.62181,-2.39445 -14.24763,-2.27475 -13.50329,-1.93613 -13.82328,-1.75508 -12.7567,-1.40922 -12.85491,-1.20712 -12.87157,-0.98376 -12.80589,-0.74208 -11.46886,-0.44102 -8.88876,-0.13456 -8.75157,0.0628 -8.58423,0.25791 -8.38718,0.44884 -8.16104,0.63367 -7.90662,0.81059 -7.6249,0.97779 -8.33569,1.3076 -7.89665,1.49184 -7.42314,1.65463 -6.91788,1.79421 -6.38377,1.90936 -5.823859,1.99938 -4.618653,1.80341 -4.159324,1.83629 -3.688618,1.85305 -3.208362,1.85457 -2.72035,1.84197 -1.938711,1.55912 -1.572946,1.53343 -1.205292,1.50166 -0.722805,1.22346 -0.466632,1.19557 -0.210728,1.16594 0.04452,1.13513 0.29633,1.09185 0.541809,1.0239 0.785316,0.95522 1.026625,0.88669 1.265369,0.81847 1.829446,0.89273 2.163317,0.7962 2.937311,0.80876 3.371863,0.68206 4.369898,0.62881 4.90162,0.47415 6.123386,0.358 7.52229,0.195 9.09427,-0.008 10.8263,-0.23802 14.73045,-0.56282 25.90995,-1.26477 28.1024,-1.31159 99.01553,-3.91916 30.06093,-0.88177 12.47591,-0.27089"
       clip-path="url(#p09c7f9ade2)"
       style="fill:#578bb5;fill-opacity:1;stroke:#000000;stroke-width:2.7;stroke-linecap:square;stroke-dasharray:none;stroke-opacity:1"
       id="path69"
       sodipodi:nodetypes="czccccccccccccccccccccccccccccccccccccccccccccccccccccccccccc"
       transform="translate(-72.8455,-92.7272)" />
    <g
       id="g70"
       style="fill:#578bb5;fill-opacity:1;stroke:#000000;stroke-width:8.87311;stroke-linecap:butt;stroke-linejoin:round;stroke-dasharray:none;stroke-opacity:1"
       transform="matrix(0.30084033,0.04569121,-0.04569121,0.30084033,262.10266,37.12039)">
      <path
         d="m 398.48727,174.528 -19.46899,-2.72394 -21.0948,-2.73019 -22.27195,-2.65595 -22.40939,-2.45049 -22.09574,-2.19828 -20.82109,-1.86106 -20.15868,-1.58445 -19.10545,-1.27332 -16.5104,-0.88993 -16.28533,-0.65137 -14.68608,-0.35894 -13.05536,-0.10345 -12.56577,0.12751 -10.91962,0.32498 -10.37015,0.52826 -9.75676,0.73173 -8.20682,0.82964 -7.6202,0.98651 -6.99553,1.13614 -5.665509,1.12827 -5.121926,1.23217 -4.55813,1.32827 -3.511676,1.23474 -3.055602,1.29676 -2.590292,1.35361 -1.843931,1.20179 -1.492204,1.23722 -0.972409,1.05628 -0.72434,1.07794 -0.475153,1.09854 -0.225235,1.1183 0.02503,1.13063 0.275259,1.11441 0.525062,1.09449 0.774055,1.07369 1.021855,1.05181 1.551076,1.2315 1.902175,1.19563 2.249051,1.15694 3.055602,1.29676 3.511676,1.23474 3.957141,1.16732 5.052512,1.24462 5.598743,1.14167 6.12287,1.0314 7.48457,1.02046 8.0799,0.86502 8.63489,0.704 10.19268,0.58945 10.76171,0.38571 11.26436,0.18482 12.88842,-0.0209 13.31642,-0.24304 14.89835,-0.49827 16.42779,-0.78444 17.83487,-1.08773 19.03477,-1.39096 19.9286,-1.67497 21.5738,-2.03511 22.41706,-2.33853 23.06761,-2.63711 22.41633,-2.79397 21.23463,-2.87542 7.55565,-1.08187 v 0"
         clip-path="url(#p51a32f6ac6)"
         style="fill:#578bb5;fill-opacity:1;stroke:#000000;stroke-width:8.87311;stroke-linecap:square;stroke-linejoin:round;stroke-dasharray:none;stroke-opacity:1"
         id="path70" />
    </g>
    <g
       id="g95"
       style="opacity:0.247191;fill:#b3b3b3;fill-opacity:1;stroke:#3c5372;stroke-width:6.57267;stroke-linecap:butt;stroke-linejoin:round;stroke-dasharray:6.57267, 13.1453;stroke-dashoffset:0;stroke-opacity:1"
       transform="matrix(0.28921873,0.09457864,-0.09457864,0.28921873,271.07523,35.331523)">
      <path
         d="m 398.48727,174.528 -19.46899,-2.72394 -21.0948,-2.73019 -22.27195,-2.65595 -22.40939,-2.45049 -22.09574,-2.19828 -20.82109,-1.86106 -20.15868,-1.58445 -19.10545,-1.27332 -16.5104,-0.88993 -16.28533,-0.65137 -14.68608,-0.35894 -13.05536,-0.10345 -12.56577,0.12751 -10.91962,0.32498 -10.37015,0.52826 -9.75676,0.73173 -8.20682,0.82964 -7.6202,0.98651 -6.99553,1.13614 -5.665509,1.12827 -5.121926,1.23217 -4.55813,1.32827 -3.511676,1.23474 -3.055602,1.29676 -2.590292,1.35361 -1.843931,1.20179 -1.492204,1.23722 -0.972409,1.05628 -0.72434,1.07794 -0.475153,1.09854 -0.225235,1.1183 0.02503,1.13063 0.275259,1.11441 0.525062,1.09449 0.774055,1.07369 1.021855,1.05181 1.551076,1.2315 1.902175,1.19563 2.249051,1.15694 3.055602,1.29676 3.511676,1.23474 3.957141,1.16732 5.052512,1.24462 5.598743,1.14167 6.12287,1.0314 7.48457,1.02046 8.0799,0.86502 8.63489,0.704 10.19268,0.58945 10.76171,0.38571 11.26436,0.18482 12.88842,-0.0209 13.31642,-0.24304 14.89835,-0.49827 16.42779,-0.78444 17.83487,-1.08773 19.03477,-1.39096 19.9286,-1.67497 21.5738,-2.03511 22.41706,-2.33853 23.06761,-2.63711 22.41633,-2.79397 21.23463,-2.87542 7.55565,-1.08187 v 0"
         clip-path="url(#p51a32f6ac6)"
         style="fill:#b3b3b3;fill-opacity:1;stroke:#3c5372;stroke-width:6.57267;stroke-linecap:square;stroke-linejoin:round;stroke-dasharray:6.57267, 13.1453;stroke-dashoffset:0;stroke-opacity:1"
         id="path95" />
    </g>
  </g>
  <text
     xml:space="preserve"
     style="font-style:normal;font-variant:normal;font-weight:normal;font-stretch:normal;font-size:8.63917px;line-height:1;font-family:'Times New Roman';-inkscape-font-specification:'Times New Roman, ';letter-spacing:-0.10124px;word-spacing:-0.10529px;opacity:1;fill:#578bb5;fill-opacity:0.317901;stroke:#000000;stroke-width:1.78182;stroke-linecap:square;stroke-linejoin:bevel;stroke-dasharray:none;stroke-dashoffset:0;stroke-opacity:1"
     x="22.191011"
     y="-117.6423"
     id="text102"><tspan
       sodipodi:role="line"
       id="tspan102"
       style="font-style:normal;font-variant:normal;font-weight:normal;font-stretch:normal;font-family:'Times New Roman';-inkscape-font-specification:'Times New Roman, ';stroke-width:1.78182"
       x="22.191011"
       y="-117.6423" /></text>
</svg>
