<?xml version="1.0" encoding="UTF-8" standalone="no"?>
<svg
   color="var(--sl-color-text-accent)"
   overflow="visible"
   viewbox="30 30 1024 1024"
   width="3410.3452"
   height="1022.9617"
   fill="none"
   stroke="var(--sl-color-text-accent)"
   stroke-width="52"
   opacity="1"
   stroke-linecap="round"
   stroke-linejoin="round"
   font-size="12px"
   version="1.1"
   id="svg16"
   sodipodi:docname="ARC4CFD_logo_fullname.svg"
   inkscape:version="1.3 (0e150ed, 2023-07-21)"
   inkscape:export-filename="ARC4CFD_logo.png"
   inkscape:export-xdpi="96"
   inkscape:export-ydpi="96"
   xml:space="preserve"
   xmlns:inkscape="http://www.inkscape.org/namespaces/inkscape"
   xmlns:sodipodi="http://sodipodi.sourceforge.net/DTD/sodipodi-0.dtd"
   xmlns="http://www.w3.org/2000/svg"
   xmlns:svg="http://www.w3.org/2000/svg"><defs
     id="defs16" /><sodipodi:namedview
     id="namedview16"
     pagecolor="#ffffff"
     bordercolor="#000000"
     borderopacity="0.25"
     inkscape:showpageshadow="2"
     inkscape:pageopacity="0.0"
     inkscape:pagecheckerboard="0"
     inkscape:deskcolor="#d1d1d1"
     showgrid="false"
     inkscape:zoom="0.12973813"
     inkscape:cx="1861.442"
     inkscape:cy="470.17789"
     inkscape:window-width="1312"
     inkscape:window-height="429"
     inkscape:window-x="146"
     inkscape:window-y="127"
     inkscape:window-maximized="0"
     inkscape:current-layer="svg16" /><g
     id="g16"
     style="fill:#84d3df;stroke:#2a5caa;stroke-opacity:1;fill-opacity:1"
     transform="translate(-3.0199,-0.5193)"><path
       d="m 139.142,283.654 c 0,-81.05 65.704,-146.754 146.754,-146.754 H 742.14 c 81.05,0 146.754,65.704 146.754,146.754 v 456.244 c 0,81.049 -65.704,146.753 -146.754,146.753 H 285.896 c -81.05,0 -146.754,-65.704 -146.754,-146.753 z"
       id="path1"
       style="fill:#84d3df;stroke:#2a5caa;stroke-opacity:1;fill-opacity:1" /><path
       d="m 237.271,700.043 c -7.484,-7.406 -20.181,-1.974 -19.993,8.553 l 1.362,76.247 c 0.115,6.449 5.412,11.597 11.862,11.528 l 74.885,-0.802 c 10.427,-0.112 15.543,-12.748 8.131,-20.082 z"
       fill="currentColor"
       stroke="none"
       id="path2"
       style="fill:#84d3df;stroke:#2a5caa;stroke-opacity:1;fill-opacity:1" /><path
       d="m 115.178,382.082 -84.4155,0.021"
       id="path3"
       style="fill:#84d3df;stroke:#2a5caa;stroke-opacity:1;fill-opacity:1" /><path
       d="m 994.98,379.767 -84.415,0.021"
       id="path4"
       style="fill:#84d3df;stroke:#2a5caa;stroke-opacity:1;fill-opacity:1" /><path
       d="m 648.316,113.056 0.225,-84.415"
       id="path5"
       style="fill:#84d3df;stroke:#2a5caa;stroke-opacity:1;fill-opacity:1" /><path
       d="m 646.106,996.981 -0.181,-84.415"
       id="path6"
       style="fill:#84d3df;stroke:#2a5caa;stroke-opacity:1;fill-opacity:1" /><path
       d="m 113.435,511.754 -84.4151,0.022"
       id="path7"
       style="fill:#84d3df;stroke:#2a5caa;stroke-opacity:1;fill-opacity:1" /><path
       d="m 993.238,509.439 -84.416,0.022"
       id="path8"
       style="fill:#84d3df;stroke:#2a5caa;stroke-opacity:1;fill-opacity:1" /><path
       d="m 518.649,110.934 0.225,-84.4147"
       id="path9"
       style="fill:#84d3df;stroke:#2a5caa;stroke-opacity:1;fill-opacity:1" /><path
       d="M 516.431,995.484 516.25,911.069"
       id="path10"
       style="fill:#84d3df;stroke:#2a5caa;stroke-opacity:1;fill-opacity:1" /><path
       d="m 115.178,646.078 -84.4155,0.021"
       id="path11"
       style="fill:#84d3df;stroke:#2a5caa;stroke-opacity:1;fill-opacity:1" /><path
       d="m 994.98,643.763 -84.415,0.021"
       id="path12"
       style="fill:#84d3df;stroke:#2a5caa;stroke-opacity:1;fill-opacity:1" /><path
       d="m 384.321,112.284 0.225,-84.4148"
       id="path13"
       style="fill:#84d3df;stroke:#2a5caa;stroke-opacity:1;fill-opacity:1" /><path
       d="M 382.111,997.481 381.93,913.066"
       id="path14"
       style="fill:#84d3df;stroke:#2a5caa;stroke-opacity:1;fill-opacity:1" /><path
       d="m 227.041,294.661 c 0,0 102.061,4.032 202.053,50.355 99.992,46.322 116.143,95.169 197.915,134.935 81.771,39.766 173.986,31.005 173.986,31.005"
       id="path15"
       style="fill:#84d3df;stroke:#2a5caa;stroke-opacity:1;fill-opacity:1" /><path
       d="m 227.041,509.439 c 0,0 106.468,0 185.809,28.182 92.316,32.79 135.263,55.543 233.075,70.372 81.734,12.392 155.07,11.427 155.07,11.427"
       id="path16"
       style="fill:#84d3df;stroke:#2a5caa;stroke-opacity:1;fill-opacity:1" /></g><text
     xml:space="preserve"
     style="font-size:528.869px;line-height:1.4;font-family:com;-inkscape-font-specification:com;text-align:center;letter-spacing:-6.19771px;word-spacing:-6.4456px;text-anchor:middle;fill:#1a1a1a;stroke:none;stroke-width:66.1088;stroke-linecap:square;stroke-linejoin:bevel;stroke-opacity:1"
     x="2388.5769"
     y="663.32092"
     id="text16"
     transform="scale(0.96281159,1.0386248)"><tspan
       sodipodi:role="line"
       id="tspan16"
       x="2385.478"
       y="663.32092"
       style="font-style:normal;font-variant:normal;font-weight:bold;font-stretch:normal;font-family:Tahoma;-inkscape-font-specification:'Tahoma Bold';stroke:none;stroke-width:66.1088">ARC<tspan
   style="font-size:65%;baseline-shift:super"
   id="tspan17">4</tspan>CFD</tspan></text><text
     xml:space="preserve"
     style="font-size:528.869px;line-height:1.4;font-family:com;-inkscape-font-specification:com;text-align:center;letter-spacing:-6.19771px;word-spacing:-6.4456px;text-anchor:middle;fill:#2a5caa;stroke:none;stroke-width:66.1088;stroke-linecap:square;stroke-linejoin:bevel;stroke-opacity:1;fill-opacity:1"
     x="2378.1912"
     y="653.69293"
     id="text19"
     transform="scale(0.96281159,1.0386248)"><tspan
       sodipodi:role="line"
       id="tspan19"
       x="2375.0923"
       y="653.69293"
       style="font-style:normal;font-variant:normal;font-weight:bold;font-stretch:normal;font-family:Tahoma;-inkscape-font-specification:'Tahoma Bold';fill:#2a5caa;stroke:none;stroke-width:66.1088;fill-opacity:1">ARC<tspan
   style="font-size:65%;baseline-shift:super;fill:#2a5caa;fill-opacity:1"
   id="tspan18">4</tspan>CFD</tspan></text></svg>
